<svg viewBox="-2 -2 79.44 22.84" preserveAspectRatio="xMidYMid meet" xmlns="http://www.w3.org/2000/svg">
  <g id="svgGroup"
     stroke-linecap="round"
     fill-rule="evenodd"
     font-size="9pt"
     stroke="#000"
     stroke-width="0.25mm"
     fill="#000"
     style="stroke:#000;stroke-width:0.25mm;fill:#000">
    <path d="M 8.52 18.4 L 7.4 18.4 L 0 0.44 L 1.08 0.44 L 8.2 17.64 L 7.8 17.64 L 12.16 7.68 Q 13.12 5.52 13.72 3.78 A 33.562 33.562 0 0 0 14.376 1.66 A 28.22 28.22 0 0 0 14.68 0.44 L 15.8 0.44 Q 15.4 2.12 14.72 3.96 Q 14.136 5.541 13.285 7.477 A 93.147 93.147 0 0 1 13 8.12 L 8.52 18.4 Z" id="0"/>
    <path d="M 35.28 9.12 L 21.4 9.12 A 16.89 16.89 0 0 0 21.523 10.907 Q 21.659 11.989 21.94 12.9 A 8.991 8.991 0 0 0 22.567 14.438 A 7.079 7.079 0 0 0 23.36 15.64 Q 24.28 16.76 25.6 17.32 A 7.043 7.043 0 0 0 27.566 17.825 A 8.799 8.799 0 0 0 28.56 17.88 A 8.704 8.704 0 0 0 29.691 17.81 Q 30.333 17.726 30.88 17.54 Q 31.88 17.2 32.68 16.58 Q 33.48 15.96 34.16 15.2 L 34.92 15.76 Q 34.16 16.68 33.2 17.38 Q 32.24 18.08 31.08 18.44 A 8.064 8.064 0 0 1 29.309 18.772 A 9.675 9.675 0 0 1 28.56 18.8 A 8.83 8.83 0 0 1 26.607 18.592 A 7.307 7.307 0 0 1 25.24 18.14 Q 23.76 17.48 22.68 16.26 A 8.097 8.097 0 0 1 21.341 14.149 A 9.774 9.774 0 0 1 21.02 13.32 A 10.956 10.956 0 0 1 20.523 11.029 A 13.962 13.962 0 0 1 20.44 9.48 A 15.323 15.323 0 0 1 20.576 7.389 A 11.349 11.349 0 0 1 21.02 5.42 Q 21.6 3.64 22.64 2.44 Q 23.68 1.24 25.04 0.62 A 6.972 6.972 0 0 1 27.702 0.006 A 8.09 8.09 0 0 1 28 0 A 8.233 8.233 0 0 1 30.126 0.268 A 7.397 7.397 0 0 1 30.9 0.52 Q 32.24 1.04 33.22 2.06 A 6.538 6.538 0 0 1 34.281 3.546 A 8.442 8.442 0 0 1 34.76 4.64 Q 35.285 6.103 35.318 8.022 A 15.093 15.093 0 0 1 35.32 8.28 L 35.32 8.7 A 0.948 0.948 0 0 1 35.318 8.754 Q 35.313 8.843 35.293 9.01 A 13.762 13.762 0 0 1 35.28 9.12 Z M 21.48 8.2 L 34.32 8.2 Q 34.32 6.4 33.86 5.04 A 7.326 7.326 0 0 0 33.28 3.737 A 5.806 5.806 0 0 0 32.58 2.76 Q 31.76 1.84 30.62 1.38 A 6.433 6.433 0 0 0 28.426 0.925 A 7.424 7.424 0 0 0 28.16 0.92 A 7.759 7.759 0 0 0 26.699 1.051 A 5.911 5.911 0 0 0 25.34 1.48 Q 24.12 2.04 23.28 3.04 A 6.967 6.967 0 0 0 22.057 5.196 A 7.962 7.962 0 0 0 22 5.36 A 10.429 10.429 0 0 0 21.527 7.591 A 12.088 12.088 0 0 0 21.48 8.2 Z" id="1"/>
    <path d="M 41.28 10.76 L 41.32 0.44 L 42.28 0.44 L 42.28 10.76 A 16.458 16.458 0 0 0 42.339 12.197 Q 42.401 12.897 42.526 13.497 A 7.938 7.938 0 0 0 42.7 14.18 A 7.377 7.377 0 0 0 43.092 15.204 Q 43.419 15.892 43.86 16.38 Q 44.6 17.2 45.62 17.54 A 6.597 6.597 0 0 0 47.035 17.838 A 8.259 8.259 0 0 0 47.88 17.88 A 6.225 6.225 0 0 0 49.528 17.668 A 5.548 5.548 0 0 0 50.24 17.42 A 5.189 5.189 0 0 0 52.063 16.107 A 6.02 6.02 0 0 0 52.14 16.02 A 6.17 6.17 0 0 0 53.043 14.635 A 7.901 7.901 0 0 0 53.42 13.7 Q 53.878 12.325 53.88 10.533 A 13.788 13.788 0 0 0 53.88 10.52 L 53.88 0.44 L 54.88 0.44 L 54.88 14.72 A 21.118 21.118 0 0 0 54.884 15.105 Q 54.895 15.72 54.94 16.56 A 8.627 8.627 0 0 0 55.012 17.313 Q 55.101 17.939 55.28 18.4 L 54.28 18.4 A 3.989 3.989 0 0 1 54.114 17.911 Q 54.033 17.611 53.98 17.26 Q 53.88 16.6 53.86 15.92 Q 53.845 15.399 53.841 15.043 A 20.238 20.238 0 0 1 53.84 14.84 Q 53.48 15.56 53 16.26 A 5.576 5.576 0 0 1 52.134 17.243 A 6.596 6.596 0 0 1 51.78 17.54 A 5.292 5.292 0 0 1 50.84 18.123 A 7.106 7.106 0 0 1 49.96 18.48 Q 48.88 18.84 47.36 18.84 Q 46.36 18.84 45.46 18.56 Q 44.56 18.28 43.78 17.68 A 5.039 5.039 0 0 1 42.774 16.633 A 6.182 6.182 0 0 1 42.44 16.12 A 6.911 6.911 0 0 1 41.922 15.002 A 9.536 9.536 0 0 1 41.58 13.82 A 11.879 11.879 0 0 1 41.355 12.386 Q 41.285 11.668 41.28 10.867 A 19.523 19.523 0 0 1 41.28 10.76 Z" id="2"/>
    <path d="M 61.84 18.4 L 60.68 18.4 L 67.36 9.12 L 60.8 0.44 L 62.04 0.44 L 67.96 8.28 L 73.48 0.44 L 74.64 0.44 L 68.56 9.04 L 75.44 18.4 L 74.2 18.4 L 67.96 9.88 L 61.84 18.4 Z" id="3"/>
  </g>
</svg>

